PathFileType	4	(X/Y/Z)	C:\Users\Basilio\Documents\Thesis Gigler\squatting_fais\c3dfiles\054\SJ_pre3\markers_experimental.trc
DataRate	CameraRate	NumFrames	NumMarkers	Units	OrigDataRate	OrigDataStartFrame	OrigNumFrames
200.000000	200.000000	4	61	mm	200.000000	897	1794
Frame#	Time	FHD			LBHD			RBHD			C7			T10			CLAV			LSHO			LUUPA			LMUPA			LDUPA			LLEP			LMEP			LRAD			LUL			LRFIN			RSHO			RUPA1			RMUPA			RDUPA			RLEP			RMEP			RRAD			RUL			RUFIN			LASI			RASI			USACR			LSACR			RSACR			LTHI1			LTHI2			LTHI3			LTHI4			LLFC			LMFC			LTIB1			LTIB2			LTIB3			LTIB4			LLMAL			LMMAL			LHEE			LMT1			LMT2			LMT5			RTHI			RTHI2			RTHI3			RTHI4			RLFC			RMFC			RTIB1			RTIB2			RTIB3			RTIB4			RLMAL			RMMAL			RHEE			RMT1			RMT2			RMT5			
		X1	Y1	Z1	X2	Y2	Z2	X3	Y3	Z3	X4	Y4	Z4	X5	Y5	Z5	X6	Y6	Z6	X7	Y7	Z7	X8	Y8	Z8	X9	Y9	Z9	X10	Y10	Z10	X11	Y11	Z11	X12	Y12	Z12	X13	Y13	Z13	X14	Y14	Z14	X15	Y15	Z15	X16	Y16	Z16	X17	Y17	Z17	X18	Y18	Z18	X19	Y19	Z19	X20	Y20	Z20	X21	Y21	Z21	X22	Y22	Z22	X23	Y23	Z23	X24	Y24	Z24	X25	Y25	Z25	X26	Y26	Z26	X27	Y27	Z27	X28	Y28	Z28	X29	Y29	Z29	X30	Y30	Z30	X31	Y31	Z31	X32	Y32	Z32	X33	Y33	Z33	X34	Y34	Z34	X35	Y35	Z35	X36	Y36	Z36	X37	Y37	Z37	X38	Y38	Z38	X39	Y39	Z39	X40	Y40	Z40	X41	Y41	Z41	X42	Y42	Z42	X43	Y43	Z43	X44	Y44	Z44	X45	Y45	Z45	X46	Y46	Z46	X47	Y47	Z47	X48	Y48	Z48	X49	Y49	Z49	X50	Y50	Z50	X51	Y51	Z51	X52	Y52	Z52	X53	Y53	Z53	X54	Y54	Z54	X55	Y55	Z55	X56	Y56	Z56	X57	Y57	Z57	X58	Y58	Z58	X59	Y59	Z59	X60	Y60	Z60	X61	Y61	Z61	

898	4.485	154.5105285644532	1149.904296875	-857.3808593750002	-4.844983577728272	1111.070190429688	-940.041198730469	-32.13047027587891	1108.897094726563	-802.5688476562502	-81.27436828613283	1031.26953125	-858.4702148437502	-362.7670593261719	859.8005981445315	-903.3552246093752	-21.92703437805176	880.719665527344	-870.7908935546877	-1.254381179809571	961.2615966796877	-1019.336303710938	-127.7055740356446	959.5924072265627	-1211.420043945313	-135.4823303222657	910.171325683594	-1221.770751953125	-170.6568298339844	936.3369750976565	-1262.560913085938	-219.8831024169922	896.3496704101565	-1289.247802734375	-281.1975097656251	949.8162231445315	-1253.162475585938	-402.2473449707032	767.1534423828126	-1142.051879882813	-394.2520751953126	707.1198120117189	-1188.457397460938	-363.4668579101563	735.0125732421876	-1094.303344726563	-5.156024456024171	934.1256103515627	-708.5889282226564	-168.279296875	912.823425292969	-533.5812377929689	-187.7248077392578	867.772888183594	-533.0746459960939	-227.5959625244141	897.7421875000002	-496.7371215820314	-276.0435485839844	876.7039794921877	-487.6421508789064	-316.8534545898438	937.534362792969	-534.8598632812501	-444.4458618164064	774.3067626953127	-685.2017822265626	-389.9288940429689	744.1245727539064	-713.8458862304689	-441.2523193359376	711.3316040039064	-637.0833129882814	-361.2069396972657	642.2068481445314	-1030.73193359375	-361.5350341796876	650.3580932617189	-774.5335693359377	-447.552215576172	808.5902099609377	-907.894714355469	-474.8542480468751	791.6921997070315	-936.638366699219	-478.7129516601564	792.755310058594	-879.311462402344	-417.9754638671876	578.7274780273439	-1174.583374023438	-338.4661254882813	566.2115478515626	-1202.458618164063	-310.6838378906251	602.1013793945314	-1189.65771484375	-310.6074218750001	513.5775756835939	-1215.49462890625	-195.8029174804688	440.3014221191407	-1243.33837890625	-131.9757080078125	423.9479980468751	-1122.700073242188	-206.0132141113282	281.0895996093751	-1206.690063476563	-285.5415649414063	269.4201049804688	-1246.6982421875	-249.1922454833985	248.6943969726563	-1229.8955078125	-284.1719970703126	182.349609375	-1191.049072265625	-408.3459777832032	89.97837829589845	-1210.36083984375	-352.7230224609376	98.38200378417972	-1129.077270507813	-466.645721435547	52.87430572509767	-1138.655151367188	-248.6970214843751	53.28160476684572	-1186.363037109375	-257.3701782226563	57.07988739013673	-1235.224609375	-320.4033508300782	37.25301742553712	-1272.932983398438	-376.5099792480469	544.0333251953126	-617.6903076171876	-311.9783630371094	548.8764038085939	-597.6981201171876	-291.2960510253907	574.4158935546876	-603.2626342773439	-262.3293457031251	482.1283264160157	-582.9805297851564	-217.466537475586	437.2408447265626	-566.3456420898439	-139.1049957275391	436.6328430175782	-681.5610961914064	-202.6425170898438	330.9483947753907	-562.5515136718751	-309.1661987304688	302.8178100585938	-563.0068969726564	-270.9089660644532	275.8612365722657	-561.4415283203126	-276.1994018554688	225.7213592529297	-588.4529418945314	-409.8590087890626	93.69905090332033	-603.3005371093751	-350.3033752441407	99.2849044799805	-676.1444702148439	-463.985565185547	51.72438812255861	-675.6049194335939	-245.1565856933594	50.57833099365236	-616.6497802734376	-259.6225585937501	55.17617797851564	-571.0898437500001	-320.0997314453126	34.97311782836915	-538.2734375000001	
899	4.49	154.6376647949219	1149.737426757813	-857.3260498046877	-4.7120099067688	1110.950561523438	-940.0520629882815	-32.03039932250977	1108.802001953125	-802.5541992187502	-81.05716705322267	1031.1923828125	-858.498718261719	-362.8049316406251	859.7828369140627	-903.3503417968752	-21.90951347351075	880.660583496094	-870.7784423828127	-1.134516000747681	961.195007324219	-1019.345031738281	-127.4618453979492	959.5379638671877	-1211.390625	-135.0995330810547	910.2675781250002	-1221.802612304688	-170.4168395996094	936.3277587890627	-1262.566528320313	-219.8154602050782	896.320007324219	-1289.247924804688	-281.1051025390626	949.8328857421877	-1253.155883789063	-402.2005615234376	767.1802978515626	-1142.046630859375	-394.2507934570314	707.1304321289064	-1188.458251953125	-363.4644470214844	735.0629272460939	-1094.304931640625	-5.038339138031007	933.8901367187502	-708.6121215820314	-167.9764556884766	912.7734985351565	-533.6350097656251	-187.6122131347657	867.6958007812502	-533.0507812500001	-227.6173858642579	897.5408325195315	-496.8267211914064	-275.6988830566407	876.535095214844	-487.6667480468751	-316.7318725585938	937.4759521484377	-534.7597045898439	-444.4675903320314	774.3409423828127	-685.2018432617189	-389.9288940429689	744.1245727539064	-713.8458862304689	-441.2103576660157	711.3334960937501	-637.0826416015626	-361.1062011718751	642.2304687500001	-1030.826049804688	-361.4380187988282	650.3497314453126	-774.614196777344	-447.519012451172	808.5982055664065	-907.9265747070315	-474.7968139648439	791.7573242187502	-936.647888183594	-478.6590270996095	792.7945556640627	-879.326110839844	-418.0192871093751	578.7656250000001	-1174.6201171875	-338.4288635253907	566.2415771484376	-1202.448486328125	-310.8589782714844	602.2105712890626	-1189.593505859375	-310.5407104492188	513.6010742187501	-1215.512939453125	-195.8201141357422	440.3204345703126	-1243.289672851563	-132.0316162109375	423.9400939941407	-1122.699951171875	-205.9688110351563	280.9630126953126	-1206.623779296875	-285.5578613281251	269.4459228515626	-1246.644775390625	-249.2342834472657	248.676742553711	-1229.912963867188	-284.1382446289063	182.3595123291016	-1191.014526367188	-408.686248779297	90.05164337158205	-1210.265991210938	-352.6988525390626	98.35433197021487	-1129.1201171875	-466.6663208007814	52.94699859619142	-1138.637084960938	-248.6889190673829	53.28839111328126	-1186.361328125	-257.3869018554688	57.04178619384767	-1235.190551757813	-320.4069824218751	37.24143218994141	-1272.886962890625	-376.5333251953126	544.0376586914064	-617.6863403320314	-312.0433044433594	548.9334716796876	-597.6821899414064	-291.3396606445313	574.4323120117189	-603.2739868164064	-262.3610534667969	482.1703186035157	-582.9859008789064	-217.507308959961	437.2529907226564	-566.3766479492189	-139.1116333007813	436.6652832031251	-681.5706176757814	-202.6400299072266	330.9456787109376	-562.5521240234376	-309.2009277343751	302.8175659179688	-562.9674072265626	-270.8899230957032	275.9193420410157	-561.4497070312501	-276.2017211914063	225.727767944336	-588.4702758789064	-409.8576049804689	93.70716857910158	-603.2760620117189	-350.2295837402344	99.30802917480472	-676.1380004882814	-463.9715576171876	51.71428298950197	-675.6010131835939	-245.1505432128907	50.58642196655275	-616.6468505859376	-259.5821838378907	55.19692230224611	-571.0918579101564	-320.0828552246094	34.95284652709962	-538.2437133789064	
900	4.495	154.8586883544922	1149.59912109375	-857.3143310546877	-4.373051166534425	1110.885620117188	-940.1001586914065	-31.89351844787598	1108.678100585938	-802.5196533203127	-80.97168731689455	1031.112915039063	-858.5006103515627	-362.6993713378907	859.7930908203127	-903.345397949219	-21.87589073181153	880.591491699219	-870.830017089844	-1.036998152732849	961.127868652344	-1019.341613769531	-127.4280624389649	959.4879150390627	-1211.352661132813	-135.0383605957032	910.211853027344	-1221.792358398438	-170.3825073242188	936.3166503906252	-1262.496826171875	-219.6636199951172	896.3374023437502	-1289.331665039063	-280.9699401855469	949.7854003906252	-1253.177856445313	-402.0985717773439	767.2042236328126	-1142.11083984375	-394.1704711914064	707.1459960937501	-1188.478271484375	-363.4662475585938	735.0177612304689	-1094.303344726563	-4.735801219940186	933.6748046875002	-708.6880493164064	-167.7390899658203	912.5569458007815	-533.6309814453126	-187.5447387695313	867.6138916015627	-532.9650878906251	-227.4665985107422	897.3537597656252	-496.8484191894532	-275.5245971679688	876.3521118164065	-487.7047729492189	-316.3656616210938	937.3687744140627	-534.7941894531251	-444.3646850585939	774.3790283203127	-685.1396484375001	-389.9293823242189	744.1257934570314	-713.8458251953126	-441.1385498046876	711.3782348632814	-637.0406494140626	-361.1999206542969	642.2564086914064	-1030.750366210938	-361.2760925292969	650.4406127929689	-774.608581542969	-447.487518310547	808.6405029296877	-907.9193115234377	-474.7075805664064	791.7933349609377	-936.6480712890627	-478.5274658203126	792.8333129882815	-879.304626464844	-417.9947204589845	578.7982177734376	-1174.593383789063	-338.4393920898438	566.2828369140626	-1202.453247070313	-310.7846984863282	602.1992797851564	-1189.60986328125	-310.6301879882813	513.6508178710939	-1215.472534179688	-195.7951049804688	440.3823547363282	-1243.301147460938	-131.8782348632813	423.9886474609376	-1122.6279296875	-206.0393524169922	281.1142272949219	-1206.605590820313	-285.5840759277344	269.4270324707032	-1246.65087890625	-249.1939392089844	248.6991577148438	-1229.887573242188	-284.1808471679688	182.3340301513672	-1191.011108398438	-408.3565673828126	89.96598052978517	-1210.350341796875	-352.7019653320313	98.39916992187503	-1129.08154296875	-466.7043457031251	52.94782638549806	-1138.597534179688	-248.7061920166016	53.23970413208009	-1186.351806640625	-257.3902282714844	57.08140563964845	-1235.220458984375	-320.3971862792969	37.22851181030274	-1272.934448242188	-376.5346984863282	544.1180419921876	-617.6948242187501	-312.0135803222657	548.9295043945314	-597.6885986328126	-291.3156433105469	574.4566040039064	-603.2686157226564	-262.3726501464844	482.1829223632814	-582.9802856445314	-217.5136871337891	437.2469177246095	-566.3977050781251	-139.2126007080078	436.6691894531251	-681.5982666015626	-202.6793823242188	330.9709472656251	-562.5544433593751	-309.2112426757813	302.8168029785157	-562.9971313476564	-270.9223632812501	275.8915405273438	-561.3753662109376	-276.1955871582032	225.7523345947266	-588.4929809570314	-409.8620910644532	93.71090698242189	-603.2702026367189	-350.2824401855469	99.29477691650393	-676.1367187500001	-463.9549865722657	51.7152442932129	-675.5825195312501	-245.152816772461	50.57687377929689	-616.6463623046876	-259.6092224121094	55.22410202026369	-571.0643310546876	-320.0523376464844	34.94137954711915	-538.2752685546876	
901	4.5	154.9966735839844	1149.46337890625	-857.2502441406252	-4.388193607330323	1110.8427734375	-940.0717773437502	-31.7171974182129	1108.612670898438	-802.5356445312502	-80.70888519287111	1030.926635742188	-858.5532226562502	-362.6486511230469	859.832214355469	-903.3609619140627	-21.91820907592774	880.5317382812502	-870.7808837890627	-0.9179196953773501	961.0078735351565	-1019.345397949219	-126.2110748291016	959.5837402343752	-1211.989501953125	-135.1355438232422	909.9988403320315	-1221.741455078125	-170.7311248779297	936.2944946289065	-1262.131103515625	-219.6054229736329	896.259704589844	-1289.220703125	-280.8521423339844	949.7497558593752	-1253.165893554688	-402.0649414062501	767.2213745117189	-1142.117309570313	-394.088104248047	707.1651611328126	-1188.473022460938	-363.4666748046876	735.0595092773439	-1094.304077148438	-4.591695785522462	933.5232543945315	-708.6614990234376	-167.6172485351563	912.4511718750002	-533.5825805664064	-187.4648895263672	867.5344238281252	-532.9852294921876	-227.1802215576172	897.2128906250002	-496.8772277832032	-275.2476806640626	876.2124023437502	-487.700653076172	-316.2221069335938	937.3054809570315	-534.6846313476564	-444.3963928222657	774.4390869140627	-685.1491088867189	-389.9284057617189	744.1234130859376	-713.8459472656251	-441.1135559082032	711.4041748046876	-637.0579223632814	-361.2029418945313	642.2650146484376	-1030.75	-361.2848510742188	650.4266967773439	-774.6330566406252	-447.4805603027345	808.6982421875002	-907.9304809570315	-474.6336669921876	791.8198852539065	-936.7009277343752	-478.492645263672	792.843688964844	-879.3137817382815	-417.9761657714845	578.8255004882814	-1174.595947265625	-338.4360656738282	566.3141479492189	-1202.453369140625	-310.7860107421876	602.2317504882814	-1189.610107421875	-310.6135253906251	513.6701660156251	-1215.517333984375	-195.8311309814454	440.4049377441407	-1243.2548828125	-132.0196075439453	423.9839477539064	-1122.642211914063	-205.9769592285157	280.9942626953126	-1206.60546875	-285.5869750976563	269.4274597167969	-1246.630126953125	-249.1970367431641	248.7203063964844	-1229.880859375	-284.1633300781251	182.3568878173828	-1190.979614257813	-408.3460998535157	89.95072174072267	-1210.331787109375	-352.7348327636719	98.37771606445315	-1129.098266601563	-466.6408996582032	52.9441604614258	-1138.601684570313	-248.6571655273438	53.26690673828126	-1186.3017578125	-257.3319396972657	57.08950042724611	-1235.199951171875	-320.3888549804688	37.22424316406251	-1272.904418945313	-376.5346679687501	544.1514892578126	-617.7241210937501	-312.0700378417969	548.9459838867189	-597.6970825195314	-291.3335571289063	574.4656372070314	-603.2794189453126	-262.3768310546876	482.1768798828126	-583.0178222656251	-217.5078277587891	437.2809143066407	-566.4071044921876	-138.9448852539063	436.9067382812501	-681.5829467773439	-202.6848907470704	330.9847106933594	-562.5504150390626	-309.2294921875001	302.8518981933594	-562.9666748046876	-270.9438781738282	275.9430847167969	-561.4281616210939	-276.1871643066407	225.7531433105469	-588.5051269531251	-409.8691406250001	93.70229339599611	-603.2879638671876	-350.2125854492188	99.33170318603518	-676.1320190429689	-463.9822692871095	51.70121383666994	-675.5935668945314	-245.1295013427735	50.58398818969728	-616.6264038085939	-259.5876159667969	55.19869613647462	-571.0994262695314	-320.0594482421876	34.98814010620118	-538.2722167968751	
